<?xml version="1.0" encoding="utf-8"?>
<!-- Generator: Adobe Illustrator 25.2.2, SVG Export Plug-In . SVG Version: 6.00 Build 0)  -->
<svg version="1.1" id="Ebene_1" xmlns="http://www.w3.org/2000/svg" xmlns:xlink="http://www.w3.org/1999/xlink" x="0px" y="0px"
	 viewBox="0 0 489 312" enable-background="new 0 0 489 312" xml:space="preserve">
<ellipse fill="#1E1E1C" stroke="#020203" stroke-miterlimit="10" cx="187.11" cy="70.56" rx="15.82" ry="15.53"/>
<ellipse fill="#1E1E1C" stroke="#020203" stroke-miterlimit="10" cx="301.4" cy="244.7" rx="15.82" ry="15.53"/>
<ellipse fill="#1E1E1C" stroke="#020203" stroke-miterlimit="10" cx="301.4" cy="69.72" rx="15.82" ry="15.53"/>
<ellipse fill="#1E1E1C" stroke="#020203" stroke-miterlimit="10" cx="187.11" cy="245.54" rx="15.82" ry="15.53"/>
<ellipse fill="#1E1E1C" stroke="#020203" stroke-miterlimit="10" cx="98.22" cy="157.48" rx="15.82" ry="15.53"/>
<ellipse fill="#1E1E1C" stroke="#020203" stroke-miterlimit="10" cx="390.16" cy="157.48" rx="15.82" ry="15.53"/>
<line fill="none" stroke="#020203" stroke-miterlimit="10" x1="-0.24" y1="156.64" x2="82.4" y2="156.64"/>
<line fill="none" stroke="#020203" stroke-miterlimit="10" x1="405.98" y1="156.64" x2="488.62" y2="156.64"/>
<line fill="none" stroke="#020203" stroke-miterlimit="10" x1="475.03" y1="162.48" x2="488.62" y2="156.64"/>
<line fill="none" stroke="#020203" stroke-miterlimit="10" x1="202.93" y1="69.72" x2="285.58" y2="69.72"/>
<line fill="none" stroke="#020203" stroke-miterlimit="10" x1="202.93" y1="244.7" x2="285.58" y2="244.7"/>
<line fill="none" stroke="#020203" stroke-miterlimit="10" x1="109.3" y1="146.91" x2="174.62" y2="81.27"/>
<line fill="none" stroke="#020203" stroke-miterlimit="10" x1="313.32" y1="234.7" x2="378.63" y2="169.06"/>
<line fill="none" stroke="#020203" stroke-miterlimit="10" x1="312.54" y1="82.04" x2="379.42" y2="146.14"/>
<line fill="none" stroke="#020203" stroke-miterlimit="10" x1="108.52" y1="169.82" x2="175.4" y2="233.93"/>
<line fill="none" stroke="#020203" stroke-miterlimit="10" x1="295.78" y1="84.77" x2="197.68" y2="233.98"/>
<line fill="none" stroke="#020203" stroke-miterlimit="10" x1="300.55" y1="229.66" x2="300.55" y2="85.25"/>
<path fill="none" stroke="#020203" stroke-miterlimit="10" d="M168.99,46.22c-4.14-9.8-1.05-20.53,6.86-25.93
	c5.78-3.95,13.96-4.93,20.61-1.75c9.63,4.6,13.94,16.88,9.2,26.45c-3.77,7.61-12.65,12.26-22.12,11.5"/>
<path fill="none" stroke="#020203" stroke-miterlimit="10" d="M198.34,270.13c4.14,9.8,1.05,20.53-6.86,25.93
	c-5.78,3.95-13.96,4.93-20.61,1.75c-9.63-4.6-13.94-16.88-9.2-26.45c3.77-7.61,12.65-12.26,22.12-11.5"/>
<line fill="none" stroke="#020203" stroke-miterlimit="10" x1="474.9" y1="151.49" x2="488.76" y2="156.66"/>
<line fill="none" stroke="#020203" stroke-miterlimit="10" x1="365.57" y1="140.91" x2="379.44" y2="146.06"/>
<line fill="none" stroke="#020203" stroke-miterlimit="10" x1="373.3" y1="132.96" x2="379.53" y2="146.16"/>
<line fill="none" stroke="#020203" stroke-miterlimit="10" x1="373.14" y1="182.81" x2="378.38" y2="169.2"/>
<line fill="none" stroke="#020203" stroke-miterlimit="10" x1="365.04" y1="175.23" x2="378.49" y2="169.11"/>
<line fill="none" stroke="#020203" stroke-miterlimit="10" x1="271.26" y1="75.22" x2="284.85" y2="69.39"/>
<line fill="none" stroke="#020203" stroke-miterlimit="10" x1="271.13" y1="64.23" x2="284.99" y2="69.4"/>
<line fill="none" stroke="#020203" stroke-miterlimit="10" x1="271.43" y1="250.2" x2="285.01" y2="244.36"/>
<line fill="none" stroke="#020203" stroke-miterlimit="10" x1="271.29" y1="239.21" x2="285.15" y2="244.38"/>
<line fill="none" stroke="#020203" stroke-miterlimit="10" x1="68.67" y1="162.14" x2="82.26" y2="156.31"/>
<line fill="none" stroke="#020203" stroke-miterlimit="10" x1="68.54" y1="151.15" x2="82.4" y2="156.32"/>
<line fill="none" stroke="#020203" stroke-miterlimit="10" x1="162.17" y1="229.29" x2="176.04" y2="234.43"/>
<line fill="none" stroke="#020203" stroke-miterlimit="10" x1="169.89" y1="221.33" x2="176.12" y2="234.54"/>
<line fill="none" stroke="#020203" stroke-miterlimit="10" x1="200.3" y1="219.14" x2="197.93" y2="233.5"/>
<line fill="none" stroke="#020203" stroke-miterlimit="10" x1="209.78" y1="224.98" x2="197.84" y2="233.61"/>
<line fill="none" stroke="#020203" stroke-miterlimit="10" x1="206.77" y1="280.56" x2="197.63" y2="269.1"/>
<line fill="none" stroke="#020203" stroke-miterlimit="10" x1="195.96" y1="283.43" x2="197.62" y2="268.97"/>
<line fill="none" stroke="#020203" stroke-miterlimit="10" x1="169.39" y1="94.75" x2="174.63" y2="81.14"/>
<line fill="none" stroke="#020203" stroke-miterlimit="10" x1="161.28" y1="87.17" x2="174.74" y2="81.06"/>
<line fill="none" stroke="#020203" stroke-miterlimit="10" x1="159.18" y1="38.17" x2="170.28" y2="47.82"/>
<line fill="none" stroke="#020203" stroke-miterlimit="10" x1="169.28" y1="33.43" x2="170.32" y2="47.95"/>
<g>
	<g>
		<path fill="#020203" d="M34.11,136.86h2.67v13.9h-2.67V136.86z M35.28,148.24h4.52c0.61,0,1.08-0.15,1.42-0.44s0.5-0.7,0.5-1.22
			v-0.03c0-0.35-0.08-0.65-0.22-0.9c-0.15-0.25-0.37-0.44-0.66-0.57s-0.64-0.2-1.04-0.2h-4.52v-2.52h4.52
			c0.55,0,0.98-0.14,1.28-0.41c0.3-0.27,0.45-0.66,0.45-1.16c0-0.45-0.15-0.79-0.45-1.04c-0.3-0.25-0.73-0.37-1.28-0.37h-4.52v-2.52
			h4.61c0.92,0,1.7,0.15,2.35,0.44c0.65,0.3,1.14,0.73,1.48,1.29c0.34,0.56,0.51,1.24,0.51,2.03c0,0.54-0.11,1.02-0.33,1.44
			c-0.22,0.42-0.53,0.76-0.95,1.03c-0.42,0.27-0.92,0.45-1.5,0.54c0.62,0.08,1.16,0.27,1.6,0.56s0.78,0.67,1.01,1.13
			s0.35,1,0.35,1.62v0.03c0,0.8-0.17,1.48-0.51,2.05s-0.84,1-1.49,1.3s-1.44,0.44-2.35,0.44h-4.77V148.24z"/>
	</g>
</g>
<g>
	<g>
		<path fill="#020203" d="M233.8,146l3.19-5.35h2.82l-4.69,7.86l-3.6,6.04h-2.82L233.8,146z M233.77,148.87l-0.27-0.45l-4.69-7.76
			h2.82l3.18,5.27l0.37,0.62l4.84,8.01h-2.82L233.77,148.87z"/>
	</g>
</g>
<g>
	<g>
		<path fill="#020203" d="M233.8,55.89l3.19-5.35h2.82l-4.69,7.86l-3.6,6.04h-2.82L233.8,55.89z M233.77,58.76l-0.27-0.45
			l-4.69-7.76h2.82l3.18,5.27l0.37,0.62l4.84,8.01h-2.82L233.77,58.76z"/>
	</g>
</g>
<g>
	<g>
		<path fill="#020203" d="M305.08,145.66h2.67v13.9h-2.67V145.66z M306.3,151.64h4.53c0.32,0,0.6-0.07,0.84-0.21
			c0.24-0.14,0.43-0.35,0.57-0.61c0.14-0.26,0.2-0.56,0.2-0.9c0-0.34-0.07-0.65-0.2-0.91c-0.13-0.26-0.32-0.47-0.57-0.61
			c-0.24-0.14-0.53-0.22-0.85-0.22h-4.53v-2.52h4.46c0.88,0,1.66,0.18,2.33,0.53c0.67,0.35,1.19,0.85,1.56,1.5s0.56,1.39,0.56,2.24
			c0,0.85-0.19,1.59-0.56,2.23s-0.89,1.14-1.56,1.49c-0.67,0.35-1.45,0.53-2.33,0.53h-4.46V151.64z"/>
	</g>
</g>
<g>
	<g>
		<path fill="#020203" d="M233.01,252.54h2.75l3.01,9.28l3.01-9.28h2.75l-4.72,13.9h-2.08L233.01,252.54z"/>
	</g>
</g>
<g>
	<g>
		<path fill="#020203" d="M346.08,208.33h2.75l3.01,9.28l3.01-9.28h2.75l-4.72,13.9h-2.08L346.08,208.33z"/>
	</g>
</g>
<g>
	<g>
		<path fill="#020203" d="M124.59,200.47h2.67v13.9h-2.67V200.47z M125.81,206.46h4.53c0.32,0,0.6-0.07,0.84-0.21
			c0.24-0.14,0.43-0.35,0.57-0.61c0.14-0.26,0.2-0.56,0.2-0.9c0-0.34-0.07-0.65-0.2-0.91c-0.13-0.26-0.32-0.47-0.57-0.61
			c-0.24-0.14-0.53-0.21-0.85-0.21h-4.53v-2.53h4.46c0.88,0,1.66,0.18,2.33,0.53c0.67,0.35,1.19,0.85,1.56,1.5
			c0.37,0.64,0.56,1.39,0.56,2.24s-0.19,1.59-0.56,2.23s-0.89,1.14-1.56,1.49c-0.67,0.35-1.45,0.53-2.33,0.53h-4.46V206.46z"/>
	</g>
</g>
<g>
	<g>
		<path fill="#020203" d="M124.2,104.85h10.39v2.52H124.2V104.85z M128.06,105.99h2.67v12.77h-2.67V105.99z"/>
	</g>
</g>
<g>
	<g>
		<path fill="#020203" d="M149.54,292.7h10.39v2.53h-10.39V292.7z M153.4,293.83h2.67v12.77h-2.67V293.83z"/>
	</g>
</g>
<g>
	<g>
		<path fill="#020203" d="M163.76,16.58c-0.65-0.13-1.25-0.33-1.82-0.59s-1.08-0.57-1.52-0.93l1.24-2.16
			c0.55,0.44,1.18,0.78,1.89,1.02c0.71,0.24,1.45,0.36,2.2,0.36c0.87,0,1.55-0.15,2.03-0.44c0.48-0.29,0.72-0.7,0.72-1.23v-0.01
			c0-0.37-0.11-0.66-0.32-0.88s-0.49-0.38-0.84-0.48s-0.79-0.19-1.32-0.28c-0.02-0.01-0.04-0.01-0.05-0.01c-0.02,0-0.03,0-0.05-0.01
			l-0.21-0.03c-0.95-0.15-1.73-0.33-2.36-0.55c-0.62-0.22-1.15-0.61-1.59-1.16s-0.65-1.33-0.65-2.35V6.86c0-0.9,0.2-1.67,0.61-2.3
			s1-1.12,1.78-1.46c0.78-0.33,1.72-0.5,2.83-0.5c0.51,0,1.02,0.06,1.55,0.17c0.53,0.11,1.05,0.28,1.55,0.5s0.99,0.48,1.44,0.78
			l-1.13,2.22c-0.55-0.37-1.12-0.66-1.71-0.86s-1.16-0.31-1.71-0.31c-0.82,0-1.45,0.13-1.9,0.4s-0.67,0.64-0.67,1.11v0.01
			c0,0.4,0.12,0.72,0.35,0.95c0.23,0.23,0.52,0.4,0.87,0.51c0.34,0.11,0.83,0.22,1.45,0.34c0.03,0.01,0.05,0.01,0.08,0.01
			c0.03,0,0.05,0.01,0.08,0.01c0.04,0.01,0.08,0.01,0.11,0.02s0.07,0.02,0.11,0.02c0.9,0.17,1.64,0.38,2.25,0.63
			c0.6,0.25,1.1,0.64,1.51,1.19c0.4,0.54,0.6,1.29,0.6,2.23v0.02c0,0.89-0.21,1.65-0.63,2.28c-0.42,0.63-1.04,1.11-1.85,1.44
			c-0.81,0.33-1.78,0.5-2.92,0.5C165.06,16.78,164.4,16.72,163.76,16.58z"/>
	</g>
</g>
<g>
	<g>
		<path fill="#020203" d="M357.02,118.7c-0.65-0.13-1.25-0.33-1.82-0.59s-1.08-0.57-1.53-0.93l1.24-2.16
			c0.55,0.44,1.18,0.78,1.89,1.02c0.71,0.24,1.45,0.36,2.2,0.36c0.87,0,1.55-0.15,2.03-0.44c0.48-0.29,0.72-0.7,0.72-1.23v-0.01
			c0-0.37-0.11-0.66-0.32-0.88c-0.21-0.22-0.49-0.38-0.84-0.48c-0.34-0.1-0.79-0.19-1.33-0.28c-0.02-0.01-0.04-0.01-0.05-0.01
			c-0.02,0-0.03,0-0.05-0.01l-0.21-0.03c-0.95-0.15-1.73-0.33-2.36-0.55c-0.62-0.22-1.15-0.61-1.59-1.16s-0.65-1.33-0.65-2.35v-0.01
			c0-0.9,0.2-1.67,0.61-2.3s1-1.12,1.78-1.46c0.78-0.33,1.72-0.5,2.83-0.5c0.51,0,1.02,0.06,1.55,0.17s1.05,0.28,1.55,0.5
			c0.51,0.22,0.99,0.48,1.44,0.78l-1.13,2.22c-0.55-0.37-1.12-0.66-1.71-0.86c-0.59-0.2-1.16-0.31-1.71-0.31
			c-0.82,0-1.45,0.13-1.9,0.4s-0.67,0.64-0.67,1.11v0.01c0,0.4,0.12,0.72,0.35,0.95c0.23,0.23,0.52,0.4,0.87,0.51
			c0.34,0.11,0.83,0.22,1.45,0.34c0.03,0.01,0.05,0.01,0.08,0.01c0.03,0,0.05,0.01,0.08,0.01c0.04,0.01,0.08,0.01,0.11,0.02
			c0.04,0.01,0.07,0.02,0.11,0.02c0.9,0.17,1.64,0.38,2.25,0.63c0.6,0.25,1.1,0.64,1.51,1.19c0.4,0.54,0.6,1.29,0.6,2.23v0.02
			c0,0.89-0.21,1.65-0.63,2.28c-0.42,0.63-1.04,1.11-1.85,1.44c-0.81,0.33-1.78,0.5-2.92,0.5
			C358.33,118.9,357.67,118.83,357.02,118.7z"/>
	</g>
</g>
<g>
	<g>
		<path fill="#020203" d="M432.1,136.86h2.67v13.9h-2.67V136.86z M433.06,136.86h8.52v2.52h-8.52V136.86z M433.06,142.6h7.45v2.52
			h-7.45V142.6z M433.06,148.24h8.52v2.52h-8.52V148.24z"/>
	</g>
</g>
</svg>
