<?xml version="1.0" encoding="utf-8"?>
<!-- Generator: Adobe Illustrator 25.2.2, SVG Export Plug-In . SVG Version: 6.00 Build 0)  -->
<svg version="1.1" id="Ebene_1" xmlns="http://www.w3.org/2000/svg" xmlns:xlink="http://www.w3.org/1999/xlink" x="0px" y="0px"
	 viewBox="0 0 489 312" style="enable-background:new 0 0 489 312;" xml:space="preserve">
<style type="text/css">
	.st0{fill:#1E1E1C;stroke:#020203;stroke-miterlimit:10;}
	.st1{fill:none;stroke:#020203;stroke-miterlimit:10;}
	.st2{fill:#020203;}
</style>
<ellipse class="st0" cx="187.1" cy="70.6" rx="15.8" ry="15.5"/>
<ellipse class="st0" cx="301.4" cy="244.7" rx="15.8" ry="15.5"/>
<ellipse class="st0" cx="301.4" cy="69.7" rx="15.8" ry="15.5"/>
<ellipse class="st0" cx="187.1" cy="245.5" rx="15.8" ry="15.5"/>
<ellipse class="st0" cx="98.2" cy="157.5" rx="15.8" ry="15.5"/>
<ellipse class="st0" cx="390.2" cy="157.5" rx="15.8" ry="15.5"/>
<line class="st1" x1="-0.2" y1="156.6" x2="82.4" y2="156.6"/>
<line class="st1" x1="406" y1="156.6" x2="488.6" y2="156.6"/>
<line class="st1" x1="475" y1="162.5" x2="488.6" y2="156.6"/>
<line class="st1" x1="202.9" y1="69.7" x2="285.6" y2="69.7"/>
<line class="st1" x1="202.9" y1="244.7" x2="285.6" y2="244.7"/>
<line class="st1" x1="109.3" y1="146.9" x2="174.6" y2="81.3"/>
<line class="st1" x1="313.3" y1="234.7" x2="378.6" y2="169.1"/>
<line class="st1" x1="312.5" y1="82" x2="379.4" y2="146.1"/>
<line class="st1" x1="108.5" y1="169.8" x2="175.4" y2="233.9"/>
<line class="st1" x1="295.8" y1="84.8" x2="197.7" y2="234"/>
<line class="st1" x1="300.5" y1="229.7" x2="300.5" y2="85.2"/>
<path class="st1" d="M169,46.2c-4.1-9.8-1.1-20.5,6.9-25.9c5.8-4,14-4.9,20.6-1.8c9.6,4.6,13.9,16.9,9.2,26.5
	c-3.8,7.6-12.6,12.3-22.1,11.5"/>
<path class="st1" d="M198.3,270.1c4.1,9.8,1.1,20.5-6.9,25.9c-5.8,4-14,4.9-20.6,1.8c-9.6-4.6-13.9-16.9-9.2-26.5
	c3.8-7.6,12.6-12.3,22.1-11.5"/>
<line class="st1" x1="474.9" y1="151.5" x2="488.8" y2="156.7"/>
<line class="st1" x1="365.6" y1="140.9" x2="379.4" y2="146.1"/>
<line class="st1" x1="373.3" y1="133" x2="379.5" y2="146.2"/>
<line class="st1" x1="373.1" y1="182.8" x2="378.4" y2="169.2"/>
<line class="st1" x1="365" y1="175.2" x2="378.5" y2="169.1"/>
<line class="st1" x1="271.3" y1="75.2" x2="284.9" y2="69.4"/>
<line class="st1" x1="271.1" y1="64.2" x2="285" y2="69.4"/>
<line class="st1" x1="271.4" y1="250.2" x2="285" y2="244.4"/>
<line class="st1" x1="271.3" y1="239.2" x2="285.1" y2="244.4"/>
<line class="st1" x1="68.7" y1="162.1" x2="82.3" y2="156.3"/>
<line class="st1" x1="68.5" y1="151.1" x2="82.4" y2="156.3"/>
<line class="st1" x1="162.2" y1="229.3" x2="176" y2="234.4"/>
<line class="st1" x1="169.9" y1="221.3" x2="176.1" y2="234.5"/>
<line class="st1" x1="200.3" y1="219.1" x2="197.9" y2="233.5"/>
<line class="st1" x1="209.8" y1="225" x2="197.8" y2="233.6"/>
<line class="st1" x1="206.8" y1="280.6" x2="197.6" y2="269.1"/>
<line class="st1" x1="196" y1="283.4" x2="197.6" y2="269"/>
<line class="st1" x1="169.4" y1="94.8" x2="174.6" y2="81.1"/>
<line class="st1" x1="161.3" y1="87.2" x2="174.7" y2="81.1"/>
<line class="st1" x1="159.2" y1="38.2" x2="170.3" y2="47.8"/>
<line class="st1" x1="169.3" y1="33.4" x2="170.3" y2="48"/>
<g>
	<g>
		<path class="st2" d="M34.1,136.9h2.7v13.9h-2.7V136.9z M35.3,148.2h4.5c0.6,0,1.1-0.1,1.4-0.4s0.5-0.7,0.5-1.2v0
			c0-0.4-0.1-0.6-0.2-0.9c-0.2-0.2-0.4-0.4-0.7-0.6s-0.6-0.2-1-0.2h-4.5v-2.5h4.5c0.5,0,1-0.1,1.3-0.4s0.5-0.7,0.5-1.2
			c0-0.4-0.2-0.8-0.5-1s-0.7-0.4-1.3-0.4h-4.5v-2.5h4.6c0.9,0,1.7,0.1,2.3,0.4c0.7,0.3,1.1,0.7,1.5,1.3s0.5,1.2,0.5,2
			c0,0.5-0.1,1-0.3,1.4s-0.5,0.8-1,1c-0.4,0.3-0.9,0.4-1.5,0.5c0.6,0.1,1.2,0.3,1.6,0.6s0.8,0.7,1,1.1s0.3,1,0.3,1.6v0
			c0,0.8-0.2,1.5-0.5,2.1s-0.8,1-1.5,1.3s-1.4,0.4-2.3,0.4h-4.8L35.3,148.2L35.3,148.2z"/>
	</g>
</g>
<g>
	<g>
		<path class="st2" d="M233.8,146l3.2-5.4h2.8l-4.7,7.9l-3.6,6h-2.8L233.8,146z M233.8,148.9l-0.3-0.4l-4.7-7.8h2.8l3.2,5.3l0.4,0.6
			l4.8,8h-2.8L233.8,148.9z"/>
	</g>
</g>
<g>
	<g>
		<path class="st2" d="M233.8,55.9l3.2-5.3h2.8l-4.7,7.9l-3.6,6h-2.8L233.8,55.9z M233.8,58.8l-0.3-0.5l-4.7-7.8h2.8l3.2,5.3
			l0.4,0.6l4.8,8h-2.8L233.8,58.8z"/>
	</g>
</g>
<g>
	<g>
		<path class="st2" d="M305.1,145.7h2.7v13.9h-2.7V145.7z M306.3,151.6h4.5c0.3,0,0.6-0.1,0.8-0.2s0.4-0.4,0.6-0.6s0.2-0.6,0.2-0.9
			s-0.1-0.6-0.2-0.9c-0.1-0.3-0.3-0.5-0.6-0.6c-0.2-0.1-0.5-0.2-0.9-0.2h-4.5v-2.5h4.5c0.9,0,1.7,0.2,2.3,0.5
			c0.7,0.4,1.2,0.9,1.6,1.5s0.6,1.4,0.6,2.2s-0.2,1.6-0.6,2.2s-0.9,1.1-1.6,1.5c-0.7,0.4-1.5,0.5-2.3,0.5h-4.5L306.3,151.6
			L306.3,151.6z"/>
	</g>
</g>
<g>
	<g>
		<path class="st2" d="M233,252.5h2.8l3,9.3l3-9.3h2.8l-4.7,13.9h-2.1L233,252.5z"/>
	</g>
</g>
<g>
	<g>
		<path class="st2" d="M346.1,208.3h2.8l3,9.3l3-9.3h2.8l-4.7,13.9h-2.1L346.1,208.3z"/>
	</g>
</g>
<g>
	<g>
		<path class="st2" d="M124.6,200.5h2.7v13.9h-2.7V200.5z M125.8,206.5h4.5c0.3,0,0.6-0.1,0.8-0.2c0.2-0.1,0.4-0.4,0.6-0.6
			c0.1-0.3,0.2-0.6,0.2-0.9s-0.1-0.6-0.2-0.9c-0.1-0.3-0.3-0.5-0.6-0.6c-0.2-0.1-0.5-0.2-0.9-0.2h-4.5v-2.5h4.5
			c0.9,0,1.7,0.2,2.3,0.5s1.2,0.9,1.6,1.5c0.4,0.6,0.6,1.4,0.6,2.2s-0.2,1.6-0.6,2.2s-0.9,1.1-1.6,1.5s-1.4,0.5-2.3,0.5h-4.5
			L125.8,206.5L125.8,206.5z"/>
	</g>
</g>
<g>
	<g>
		<path class="st2" d="M124.2,104.8h10.4v2.5h-10.4V104.8z M128.1,106h2.7v12.8h-2.7V106z"/>
	</g>
</g>
<g>
	<g>
		<path class="st2" d="M149.5,292.7h10.4v2.5h-10.4V292.7z M153.4,293.8h2.7v12.8h-2.7V293.8z"/>
	</g>
</g>
<g>
	<g>
		<path class="st2" d="M163.8,16.6c-0.6-0.1-1.2-0.3-1.8-0.6s-1.1-0.6-1.5-0.9l1.2-2.2c0.6,0.4,1.2,0.8,1.9,1
			c0.7,0.2,1.4,0.4,2.2,0.4c0.9,0,1.6-0.1,2-0.4s0.7-0.7,0.7-1.2v0c0-0.4-0.1-0.7-0.3-0.9s-0.5-0.4-0.8-0.5s-0.8-0.2-1.3-0.3
			c0,0,0,0-0.1,0c0,0,0,0-0.1,0l-0.2,0c-0.9-0.1-1.7-0.3-2.4-0.6c-0.6-0.2-1.1-0.6-1.6-1.2s-0.6-1.3-0.6-2.3v0
			c0-0.9,0.2-1.7,0.6-2.3s1-1.1,1.8-1.5c0.8-0.3,1.7-0.5,2.8-0.5c0.5,0,1,0.1,1.6,0.2c0.5,0.1,1.1,0.3,1.6,0.5s1,0.5,1.4,0.8
			l-1.1,2.2c-0.6-0.4-1.1-0.7-1.7-0.9s-1.2-0.3-1.7-0.3c-0.8,0-1.4,0.1-1.9,0.4s-0.7,0.6-0.7,1.1v0c0,0.4,0.1,0.7,0.4,0.9
			c0.2,0.2,0.5,0.4,0.9,0.5c0.3,0.1,0.8,0.2,1.4,0.3c0,0,0.1,0,0.1,0s0.1,0,0.1,0c0,0,0.1,0,0.1,0s0.1,0,0.1,0
			c0.9,0.2,1.6,0.4,2.2,0.6c0.6,0.2,1.1,0.6,1.5,1.2c0.4,0.5,0.6,1.3,0.6,2.2v0c0,0.9-0.2,1.6-0.6,2.3s-1,1.1-1.9,1.4
			c-0.8,0.3-1.8,0.5-2.9,0.5C165.1,16.8,164.4,16.7,163.8,16.6z"/>
	</g>
</g>
<g>
	<g>
		<path class="st2" d="M357,118.7c-0.6-0.1-1.2-0.3-1.8-0.6s-1.1-0.6-1.5-0.9l1.2-2.2c0.5,0.4,1.2,0.8,1.9,1
			c0.7,0.2,1.5,0.4,2.2,0.4c0.9,0,1.5-0.2,2-0.4s0.7-0.7,0.7-1.2v0c0-0.4-0.1-0.7-0.3-0.9c-0.2-0.2-0.5-0.4-0.8-0.5
			c-0.3-0.1-0.8-0.2-1.3-0.3c0,0,0,0,0,0c0,0,0,0,0,0l-0.2,0c-1-0.2-1.7-0.3-2.4-0.6c-0.6-0.2-1.1-0.6-1.6-1.2s-0.6-1.3-0.6-2.3v0
			c0-0.9,0.2-1.7,0.6-2.3s1-1.1,1.8-1.5c0.8-0.3,1.7-0.5,2.8-0.5c0.5,0,1,0.1,1.5,0.2s1,0.3,1.5,0.5c0.5,0.2,1,0.5,1.4,0.8l-1.1,2.2
			c-0.5-0.4-1.1-0.7-1.7-0.9s-1.2-0.3-1.7-0.3c-0.8,0-1.5,0.1-1.9,0.4s-0.7,0.6-0.7,1.1v0c0,0.4,0.1,0.7,0.4,0.9
			c0.2,0.2,0.5,0.4,0.9,0.5c0.3,0.1,0.8,0.2,1.5,0.3c0,0,0,0,0.1,0s0,0,0.1,0c0,0,0.1,0,0.1,0c0,0,0.1,0,0.1,0
			c0.9,0.2,1.6,0.4,2.2,0.6c0.6,0.2,1.1,0.6,1.5,1.2c0.4,0.5,0.6,1.3,0.6,2.2v0c0,0.9-0.2,1.7-0.6,2.3s-1,1.1-1.9,1.4
			s-1.8,0.5-2.9,0.5C358.3,118.9,357.7,118.8,357,118.7z"/>
	</g>
</g>
<g>
	<g>
		<path class="st2" d="M432.1,136.9h2.7v13.9h-2.7V136.9z M433.1,136.9h8.5v2.5h-8.5V136.9z M433.1,142.6h7.5v2.5h-7.5V142.6z
			 M433.1,148.2h8.5v2.5h-8.5V148.2z"/>
	</g>
</g>
<line class="st1" x1="306.1" y1="98.4" x2="300.1" y2="84.9"/>
<line class="st1" x1="295" y1="98.7" x2="299.9" y2="84.8"/>
</svg>
